<svg width="44" height="44" viewBox="0 0 44 44" fill="none" xmlns="http://www.w3.org/2000/svg">
<rect width="43.8261" height="43.8261" rx="21.913" fill="#FDF7EB"/>
<g clip-path="url(#clip0_1_2335)">
<path d="M19.0432 29.5655H16.1737C15.1589 29.5655 14.1857 29.1624 13.4682 28.4449C12.7507 27.7274 12.3476 26.7542 12.3476 25.7394V17.1308C12.3476 16.116 12.7507 15.1428 13.4682 14.4253C14.1857 13.7078 15.1589 13.3047 16.1737 13.3047H26.6954C27.7101 13.3047 28.6833 13.7078 29.4009 14.4253C30.1184 15.1428 30.5215 16.116 30.5215 17.1308V20.0003M18.0867 12.3481V14.2612M24.7824 12.3481V14.2612M12.3476 18.0873H30.5215M28.1302 25.398L26.6954 26.8328" stroke="#053D24" stroke-width="1.91304" stroke-linecap="round" stroke-linejoin="round"/>
<path d="M26.6955 31.4783C29.3369 31.4783 31.4781 29.3371 31.4781 26.6957C31.4781 24.0543 29.3369 21.9131 26.6955 21.9131C24.0541 21.9131 21.9129 24.0543 21.9129 26.6957C21.9129 29.3371 24.0541 31.4783 26.6955 31.4783Z" stroke="#053D24" stroke-width="1.91304" stroke-linecap="round" stroke-linejoin="round"/>
</g>
<defs>
<clipPath id="clip0_1_2335">
<rect width="22.9565" height="22.9565" fill="white" transform="translate(10.4347 10.4346)"/>
</clipPath>
</defs>
</svg>
