<svg width="44" height="44" viewBox="0 0 44 44" fill="none" xmlns="http://www.w3.org/2000/svg">
<rect width="43.8261" height="43.8261" rx="21.913" fill="#FDF7EB"/>
<g clip-path="url(#clip0_1_2359)">
<g clip-path="url(#clip1_1_2359)">
<path d="M21.913 33.3911C15.5999 33.3911 10.4347 28.2259 10.4347 21.9128C10.4347 15.5998 15.5999 10.4346 21.913 10.4346C28.226 10.4346 33.3912 15.5998 33.3912 21.9128C33.3912 28.2259 28.226 33.3911 21.913 33.3911ZM19.9999 31.2867C21.2434 31.5737 22.5825 31.5737 23.826 31.2867V27.365C22.5825 27.7476 21.2434 27.7476 19.9999 27.365V31.2867ZM25.739 26.2172V30.7128C27.939 29.7563 29.7564 27.9389 30.713 25.7389H26.2173L25.739 26.2172ZM13.113 25.7389C14.0695 27.9389 15.8869 29.7563 18.0869 30.7128V26.2172C17.8956 26.1215 17.7999 25.9302 17.6086 25.7389H13.113ZM21.913 18.0867C19.8086 18.0867 18.0869 19.8085 18.0869 21.9128C18.0869 24.0172 19.8086 25.7389 21.913 25.7389C24.0173 25.7389 25.739 24.0172 25.739 21.9128C25.739 19.8085 24.0173 18.0867 21.913 18.0867ZM27.3651 23.8259H31.2869C31.3825 23.252 31.4782 22.5824 31.4782 21.9128C31.4782 21.2433 31.3825 20.5737 31.2869 19.9998H27.3651C27.5564 20.5737 27.6521 21.2433 27.6521 21.9128C27.6521 22.5824 27.5564 23.252 27.3651 23.8259ZM12.539 23.8259H16.4608C16.2695 23.252 16.1738 22.5824 16.1738 21.9128C16.1738 21.2433 16.2695 20.5737 16.4608 19.9998H12.539C12.4434 20.5737 12.3477 21.2433 12.3477 21.9128C12.3477 22.5824 12.4434 23.252 12.539 23.8259ZM26.2173 18.0867H30.713C29.7564 15.8867 27.939 14.0694 25.739 13.1128V17.6085L26.2173 18.0867ZM13.113 18.0867H17.6086C17.7043 17.8954 17.8956 17.7998 18.0869 17.6085V13.1128C15.8869 14.0694 14.0695 15.8867 13.113 18.0867ZM21.913 16.1737C22.5825 16.1737 23.2521 16.2694 23.826 16.4607V12.5389C22.5825 12.252 21.2434 12.252 19.9999 12.5389V16.4607C20.5738 16.2694 21.2434 16.1737 21.913 16.1737Z" fill="#053D24"/>
</g>
</g>
<defs>
<clipPath id="clip0_1_2359">
<rect width="22.9565" height="22.9565" fill="white" transform="translate(10.4347 10.4346)"/>
</clipPath>
<clipPath id="clip1_1_2359">
<rect width="22.9565" height="22.9565" fill="white" transform="translate(10.4347 10.4346)"/>
</clipPath>
</defs>
</svg>
