<svg width="44" height="44" viewBox="0 0 44 44" fill="none" xmlns="http://www.w3.org/2000/svg">
<rect width="43.8261" height="43.8261" rx="21.913" fill="#FDF7EB"/>
<g clip-path="url(#clip0_1_2367)">
<g clip-path="url(#clip1_1_2367)">
<path d="M11.3914 11.3911H32.4349M15.2175 11.3911V16.1737C15.2175 19.0433 20.0001 19.2681 20.0001 21.9129C20.0001 24.5576 15.2175 24.7824 15.2175 27.652V32.4346M28.6088 11.3911V16.1737C28.6088 19.0433 23.8262 19.2681 23.8262 21.9129C23.8262 24.5576 28.6088 24.7824 28.6088 27.652V32.4346M11.3914 32.4346H32.4349M20.0001 14.7389H23.8262V16.1737C23.8262 17.1302 21.9132 18.0868 21.9132 18.0868C21.9132 18.0868 20.0001 17.1302 20.0001 16.1737V14.7389ZM18.0871 30.5215C18.0871 28.6085 21.9132 26.6955 21.9132 26.6955C21.9132 26.6955 25.7392 28.6085 25.7392 30.5215V32.4346H18.0871V30.5215Z" stroke="#053D24" stroke-width="1.91304"/>
</g>
</g>
<defs>
<clipPath id="clip0_1_2367">
<rect width="22.9565" height="22.9565" fill="white" transform="translate(10.4347 10.4351)"/>
</clipPath>
<clipPath id="clip1_1_2367">
<rect width="22.9565" height="22.9565" fill="white" transform="translate(10.4347 10.4351)"/>
</clipPath>
</defs>
</svg>
