<svg width="44" height="44" viewBox="0 0 44 44" fill="none" xmlns="http://www.w3.org/2000/svg">
<rect width="43.8261" height="43.8261" rx="21.913" fill="#FDF7EB"/>
<g clip-path="url(#clip0_1_1756)">
<path d="M13.3044 18.0875H20C20.5676 18.0875 21.1224 17.9192 21.5943 17.6039C22.0662 17.2886 22.434 16.8404 22.6511 16.3161C22.8683 15.7917 22.9252 15.2148 22.8144 14.6581C22.7037 14.1015 22.4304 13.5902 22.0291 13.1889C21.6278 12.7876 21.1165 12.5143 20.5598 12.4035C20.0032 12.2928 19.4262 12.3496 18.9019 12.5668C18.3775 12.784 17.9294 13.1518 17.6141 13.6237C17.2987 14.0956 17.1304 14.6504 17.1304 15.218M14.2609 25.7397H24.7826C25.3502 25.7397 25.905 25.908 26.3769 26.2233C26.8488 26.5386 27.2166 26.9868 27.4338 27.5111C27.6509 28.0355 27.7078 28.6124 27.597 29.1691C27.4863 29.7257 27.213 30.237 26.8117 30.6383C26.4104 31.0397 25.8991 31.313 25.3424 31.4237C24.7858 31.5344 24.2088 31.4776 23.6845 31.2604C23.1601 31.0432 22.712 30.6754 22.3967 30.2035C22.0814 29.7316 21.9131 29.1768 21.9131 28.6093M12.3478 21.9136H28.6087C29.1763 21.9136 29.7311 21.7453 30.203 21.43C30.6748 21.1147 31.0427 20.6665 31.2598 20.1422C31.477 19.6178 31.5339 19.0409 31.4231 18.4842C31.3124 17.9276 31.0391 17.4163 30.6378 17.015C30.2365 16.6136 29.7252 16.3403 29.1685 16.2296C28.6119 16.1189 28.0349 16.1757 27.5106 16.3929C26.9862 16.6101 26.5381 16.9779 26.2228 17.4498C25.9074 17.9217 25.7391 18.4765 25.7391 19.044" stroke="#053D24" stroke-width="1.91304" stroke-linecap="round" stroke-linejoin="round"/>
</g>
<defs>
<clipPath id="clip0_1_1756">
<rect width="22.9565" height="22.9565" fill="white" transform="translate(10.435 10.4348)"/>
</clipPath>
</defs>
</svg>
