<svg width="44" height="44" viewBox="0 0 44 44" fill="none" xmlns="http://www.w3.org/2000/svg">
<rect width="43.8261" height="43.8261" rx="21.913" fill="#FDF7EB"/>
<g clip-path="url(#clip0_1_1747)">
<g clip-path="url(#clip1_1_1747)">
<path d="M31.6636 26.5091C31.6636 25.9933 31.4627 25.5081 31.0978 25.1435L24.6677 18.7131C25.6717 17.9033 26.328 16.6783 26.328 15.2909C26.328 12.8566 24.3477 10.8762 21.9133 10.8762C19.479 10.8762 17.4986 12.8566 17.4986 15.2909C17.4986 16.6783 18.1549 17.903 19.1589 18.7131L12.7285 25.1435C12.3636 25.5084 12.1627 25.9933 12.1627 26.5091C12.1627 27.0249 12.3636 27.5101 12.7285 27.8747C13.0254 28.1716 13.4032 28.3526 13.8109 28.4126C13.7763 28.5241 13.7398 28.6352 13.7192 28.7525C13.5912 29.4784 13.7535 30.2105 14.1761 30.8142C14.5988 31.4179 15.2313 31.8208 15.9571 31.9488L21.3916 32.9072C21.5509 32.9355 21.7128 32.9498 21.8732 32.9498C21.8846 32.9498 21.8949 32.9458 21.9063 32.9458C21.9225 32.9458 21.9372 32.9498 21.9534 32.9498C22.1138 32.9498 22.2756 32.9355 22.4346 32.9075L27.8691 31.9492C28.5949 31.8212 29.2274 31.4183 29.6501 30.8146C30.0728 30.2109 30.235 29.4788 30.107 28.7529C30.0864 28.6352 30.0499 28.5245 30.0154 28.413C30.4233 28.353 30.8012 28.1716 31.0977 27.8751C31.4627 27.5101 31.6636 27.0249 31.6636 26.5091ZM18.6023 15.2909C18.6023 13.4621 20.0845 11.9799 21.9133 11.9799C23.7421 11.9799 25.2244 13.4621 25.2244 15.2909C25.2244 17.1197 23.7421 18.602 21.9133 18.602C20.0845 18.602 18.6023 17.1197 18.6023 15.2909ZM19.238 30.6696C19.2877 30.9514 19.3863 31.2122 19.5117 31.4554L16.1492 30.8623C15.2486 30.7034 14.6474 29.8451 14.8064 28.9445C14.948 28.1414 15.6466 27.5763 16.4347 27.5763C16.53 27.5763 16.6267 27.5848 16.7242 27.6017L20.0595 28.19C19.4109 28.8062 19.0713 29.7241 19.238 30.6696ZM27.6771 30.8624L22.2426 31.8207C22.1471 31.8375 22.0504 31.846 21.9535 31.8461C21.1651 31.8461 20.4664 31.281 20.3251 30.4779C20.1662 29.5773 20.7677 28.719 21.668 28.5601L27.1025 27.6018C27.198 27.5848 27.2949 27.5763 27.392 27.5764C28.1804 27.5764 28.8787 28.1415 29.0203 28.9446C29.1788 29.8448 28.5777 30.7038 27.6771 30.8624ZM30.3175 27.0944C30.2407 27.1714 30.1495 27.2324 30.049 27.274C29.9486 27.3156 29.8409 27.337 29.7322 27.3368C29.5203 27.3368 29.3084 27.2559 29.1469 27.0944L24.6696 22.6263C24.454 22.4107 24.1045 22.4107 23.8893 22.6263C23.6741 22.842 23.6737 23.1914 23.8893 23.4066L26.9962 26.5072C26.9678 26.5113 26.9388 26.5098 26.9108 26.5146L21.9133 27.3961L16.9159 26.515C16.8875 26.5099 16.8588 26.5117 16.8305 26.5076L19.9373 23.407C20.153 23.1914 20.153 22.842 19.9373 22.6267C19.7217 22.4115 19.3723 22.4112 19.1571 22.6267L14.6798 27.0948C14.603 27.1718 14.5118 27.2328 14.4113 27.2744C14.3109 27.316 14.2032 27.3373 14.0945 27.3372C13.8826 27.3372 13.6707 27.2563 13.5091 27.0948C13.1858 26.7714 13.1858 26.2475 13.5091 25.9242L20.1176 19.3157C20.6676 19.5618 21.2728 19.7057 21.9133 19.7057C22.5538 19.7057 23.159 19.5618 23.709 19.3153L30.3175 25.9238C30.6409 26.2471 30.6409 26.7711 30.3175 27.0944Z" fill="#053D24" stroke="#053D24" stroke-width="0.419398"/>
</g>
</g>
<defs>
<clipPath id="clip0_1_1747">
<rect width="22.9565" height="22.9565" fill="white" transform="translate(10.4347 10.4348)"/>
</clipPath>
<clipPath id="clip1_1_1747">
<rect width="22.9565" height="22.9565" fill="white" transform="translate(10.4347 10.4348)"/>
</clipPath>
</defs>
</svg>
