<svg width="44" height="44" viewBox="0 0 44 44" fill="none" xmlns="http://www.w3.org/2000/svg">
<rect width="43.8261" height="43.8261" rx="21.913" fill="#FDF7EB"/>
<g clip-path="url(#clip0_1_1765)">
<path d="M11.7098 18.1581C11.6149 18.2415 11.5374 18.3429 11.4819 18.4564C11.4264 18.5699 11.3939 18.6933 11.3864 18.8195C11.3788 18.9456 11.3963 19.072 11.4379 19.1913C11.4794 19.3106 11.5442 19.4205 11.6285 19.5147C11.7128 19.6088 11.8149 19.6853 11.9289 19.7398C12.043 19.7942 12.1666 19.8256 12.2928 19.8319C12.419 19.8383 12.5452 19.8196 12.6642 19.777C12.7831 19.7343 12.8924 19.6685 12.9858 19.5833L11.7098 18.1581ZM30.8402 19.5833C30.9336 19.6685 31.0429 19.7343 31.1618 19.777C31.2807 19.8196 31.4069 19.8383 31.5331 19.8319C31.6593 19.8256 31.783 19.7942 31.897 19.7398C32.0111 19.6853 32.1132 19.6088 32.1975 19.5147C32.2817 19.4205 32.3465 19.3106 32.3881 19.1913C32.4297 19.072 32.4472 18.9456 32.4396 18.8195C32.4321 18.6933 32.3996 18.5699 32.3441 18.4564C32.2886 18.3429 32.2111 18.2415 32.1162 18.1581L30.8402 19.5833ZM21.913 28.6091C21.6593 28.6091 21.416 28.7098 21.2366 28.8892C21.0572 29.0686 20.9565 29.3119 20.9565 29.5656C20.9565 29.8193 21.0572 30.0626 21.2366 30.242C21.416 30.4213 21.6593 30.5221 21.913 30.5221V28.6091ZM21.9226 30.5221C22.1762 30.5221 22.4195 30.4213 22.5989 30.242C22.7783 30.0626 22.8791 29.8193 22.8791 29.5656C22.8791 29.3119 22.7783 29.0686 22.5989 28.8892C22.4195 28.7098 22.1762 28.6091 21.9226 28.6091V30.5221ZM24.486 26.7343C24.6738 26.905 24.9216 26.9942 25.1751 26.9822C25.4286 26.9701 25.6669 26.8579 25.8376 26.6702C26.0083 26.4825 26.0975 26.2346 26.0855 25.9811C26.0735 25.7277 25.9612 25.4894 25.7735 25.3186L24.486 26.7343ZM27.7038 23.1952C27.7967 23.2797 27.9054 23.3451 28.0236 23.3876C28.1419 23.4302 28.2673 23.449 28.3928 23.443C28.5183 23.4371 28.6414 23.4065 28.7551 23.3529C28.8688 23.2994 28.9708 23.224 29.0553 23.1311C29.1399 23.0381 29.2053 22.9294 29.2478 22.8112C29.2903 22.693 29.3092 22.5675 29.3032 22.442C29.2973 22.3165 29.2666 22.1934 29.2131 22.0797C29.1596 21.9661 29.0842 21.864 28.9913 21.7795L27.7038 23.1952ZM18.0525 25.3186C17.8682 25.4901 17.759 25.7273 17.7485 25.9788C17.738 26.2303 17.8271 26.4758 17.9963 26.6621C18.1656 26.8483 18.4015 26.9604 18.6528 26.9739C18.9042 26.9874 19.1507 26.9013 19.339 26.7343L18.0525 25.3186ZM14.8347 21.7795C14.647 21.9502 14.5348 22.1885 14.5228 22.442C14.5108 22.6955 14.5999 22.9433 14.7706 23.1311C14.9414 23.3188 15.1797 23.431 15.4332 23.443C15.6866 23.4551 15.9345 23.3659 16.1222 23.1952L14.8347 21.7795ZM12.9858 19.5852C15.438 17.3846 18.6181 16.1696 21.913 16.1743V14.2612C18.1475 14.256 14.5131 15.6441 11.7098 18.1581L12.9858 19.5833V19.5852ZM21.913 16.1743C25.3431 16.1743 28.4709 17.4618 30.8402 19.5833L32.1162 18.1581C29.313 15.6437 25.6786 14.2563 21.913 14.2612V16.1743ZM21.913 30.5221H21.9226V28.6091H21.913V30.5221ZM21.913 25.7395C22.9049 25.7395 23.8069 26.1154 24.486 26.7343L25.7735 25.3186C24.7179 24.357 23.3409 23.8247 21.913 23.8265V25.7395ZM21.913 20.9569C24.1436 20.9569 26.1743 21.8044 27.7038 23.1952L28.9913 21.7795C27.056 20.016 24.5312 19.0402 21.913 19.0439V20.9569ZM19.3399 26.7343C20.0432 26.0928 20.9611 25.7379 21.913 25.7395V23.8265C20.485 23.8247 19.108 24.357 18.0525 25.3186L19.339 26.7343H19.3399ZM16.1222 23.1952C17.7051 21.7519 19.7709 20.9534 21.913 20.9569V19.0439C19.2948 19.0402 16.77 20.016 14.8347 21.7795L16.1222 23.1952Z" fill="#053D24"/>
</g>
<defs>
<clipPath id="clip0_1_1765">
<rect width="22.9565" height="22.9565" fill="white" transform="translate(10.4346 10.4348)"/>
</clipPath>
</defs>
</svg>
