<svg width="14" height="14" viewBox="0 0 14 14" fill="none" xmlns="http://www.w3.org/2000/svg">
<path fill-rule="evenodd" clip-rule="evenodd" d="M7.17092 2.5038C7.28031 2.39444 7.42865 2.33301 7.58333 2.33301C7.73801 2.33301 7.88636 2.39444 7.99575 2.5038L12.0791 6.58713C12.1884 6.69652 12.2499 6.84487 12.2499 6.99955C12.2499 7.15423 12.1884 7.30258 12.0791 7.41197L7.99575 11.4953C7.88573 11.6016 7.73838 11.6604 7.58543 11.659C7.43249 11.6577 7.28618 11.5963 7.17802 11.4882C7.06987 11.38 7.00852 11.2337 7.00719 11.0808C7.00586 10.9278 7.06466 10.7805 7.17092 10.6705L10.2585 7.58288H2.33333C2.17862 7.58288 2.03025 7.52142 1.92085 7.41203C1.81146 7.30263 1.75 7.15426 1.75 6.99955C1.75 6.84484 1.81146 6.69647 1.92085 6.58707C2.03025 6.47767 2.17862 6.41622 2.33333 6.41622H10.2585L7.17092 3.32863C7.06156 3.21924 7.00012 3.0709 7.00012 2.91622C7.00012 2.76154 7.06156 2.61319 7.17092 2.5038Z" fill="black" fill-opacity="0.74"/>
</svg>
