<svg width="12" height="12" viewBox="0 0 12 12" fill="none" xmlns="http://www.w3.org/2000/svg">
<g clip-path="url(#clip0_1_732)">
<path d="M5.99999 8.8635L8.56499 10.441C8.70099 10.5235 8.87349 10.516 9.00199 10.422C9.13049 10.328 9.18949 10.166 9.15199 10.011L8.45449 7.068L10.737 5.099C10.856 4.9945 10.9015 4.8295 10.853 4.679C10.804 4.528 10.6705 4.421 10.5125 4.4065L7.51699 4.1625L6.36299 1.369C6.30249 1.2215 6.15949 1.125 5.99999 1.125C5.84099 1.125 5.69749 1.2215 5.63699 1.369L4.48299 4.1625L1.48749 4.4065C1.32849 4.42 1.19349 4.528 1.14449 4.6795C1.09549 4.831 1.14249 4.9975 1.26299 5.1015L3.54549 7.07L2.84799 10.011C2.81049 10.166 2.86949 10.328 2.99799 10.422C3.12649 10.516 3.29899 10.5235 3.43499 10.441L5.99999 8.8635Z" fill="#595652"/>
<path d="M5.99999 8.8635L8.56499 10.441C8.70099 10.5235 8.87349 10.516 9.00199 10.422C9.13049 10.328 9.18949 10.166 9.15199 10.011L8.45449 7.068L10.737 5.099C10.856 4.9945 10.9015 4.8295 10.853 4.679C10.804 4.528 10.6705 4.421 10.5125 4.4065L7.51699 4.1625L6.36299 1.369C6.30249 1.2215 6.15949 1.125 5.99999 1.125C5.84099 1.125 5.69749 1.2215 5.63699 1.369L4.48299 4.1625L1.48749 4.4065C1.32849 4.42 1.19349 4.528 1.14449 4.6795C1.09549 4.831 1.14249 4.9975 1.26299 5.1015L3.54549 7.07L2.84799 10.011C2.81049 10.166 2.86949 10.328 2.99799 10.422C3.12649 10.516 3.29899 10.5235 3.43499 10.441L5.99999 8.8635Z" stroke="#595652" stroke-width="0.75" stroke-linecap="round" stroke-linejoin="round"/>
</g>
<defs>
<clipPath id="clip0_1_732">
<rect width="12" height="12" fill="white"/>
</clipPath>
</defs>
</svg>
