<svg width="36" height="36" viewBox="0 0 36 36" fill="none" xmlns="http://www.w3.org/2000/svg">
<rect width="36" height="36" rx="18" fill="#F6F3E9"/>
<g clip-path="url(#clip0_1_669)">
<g clip-path="url(#clip1_1_669)">
<path d="M27.6855 18.6192L26.4578 17.6986L27.4374 15.4126C27.4646 15.3493 27.4732 15.2796 27.4624 15.2116C27.4515 15.1436 27.4216 15.0801 27.3761 15.0284C27.3305 14.9768 27.2713 14.9391 27.2052 14.9198C27.1391 14.9005 27.0689 14.9002 27.0027 14.9191L24.77 15.557L24.1639 14.0415C24.1415 13.9856 24.1056 13.9361 24.0593 13.8974C24.0131 13.8588 23.958 13.8322 23.899 13.8201C23.779 13.7963 23.6549 13.8329 23.5683 13.9193L21.1754 16.3122L22.3606 10.9787C22.3752 10.9132 22.3714 10.8451 22.3498 10.7817C22.3281 10.7182 22.2893 10.662 22.2377 10.6193C22.1861 10.5765 22.1237 10.5488 22.0573 10.5392C21.991 10.5297 21.9233 10.5386 21.8617 10.5651L19.6669 11.5056L18.3422 7.86233C18.3166 7.79211 18.2701 7.73145 18.2089 7.68858C18.1476 7.64571 18.0747 7.6227 18 7.62268C17.9253 7.62271 17.8523 7.64572 17.7911 7.68859C17.7299 7.73146 17.6833 7.79211 17.6578 7.86233L16.333 11.5056L14.1382 10.5651C14.0766 10.5386 14.009 10.5297 13.9426 10.5393C13.8763 10.5488 13.8139 10.5766 13.7624 10.6193C13.7107 10.6621 13.6719 10.7183 13.6502 10.7817C13.6285 10.8451 13.6248 10.9132 13.6393 10.9787L14.8245 16.3122L12.4316 13.9193C12.3452 13.8329 12.2215 13.7963 12.1009 13.8201C12.0419 13.8322 11.9868 13.8588 11.9406 13.8974C11.8943 13.936 11.8584 13.9855 11.836 14.0415L11.2299 15.557L8.99724 14.919C8.93103 14.9001 8.86083 14.9004 8.79475 14.9197C8.72867 14.9391 8.66942 14.9767 8.62386 15.0283C8.57835 15.08 8.54843 15.1436 8.53758 15.2116C8.52672 15.2796 8.53537 15.3493 8.56253 15.4126L9.54213 17.6986L8.31448 18.6192C8.27068 18.6519 8.23485 18.6942 8.20967 18.7428C8.18448 18.7914 8.17059 18.845 8.16904 18.8997C8.16745 18.9544 8.17819 19.0088 8.20047 19.0588C8.22275 19.1087 8.25599 19.1531 8.29774 19.1884L12.8673 23.055L12.5453 24.6647C12.5337 24.7225 12.5363 24.7823 12.553 24.8389C12.5696 24.8954 12.5997 24.9471 12.6408 24.9894C12.724 25.0755 12.8209 25.1138 12.9395 25.0954L16.8621 24.4379V27.2829C16.8621 27.8863 17.3521 28.3774 17.9544 28.3774C18.5568 28.3774 19.0467 27.8863 19.0467 27.2829V24.4379L23.0149 25.0954C23.1331 25.1138 23.2645 25.0755 23.3477 24.9894C23.4311 24.9037 23.4723 24.7821 23.4488 24.6647L23.1297 23.055L27.7007 19.1884C27.7853 19.1166 27.834 19.0107 27.8308 18.8997C27.8293 18.845 27.8154 18.7914 27.7903 18.7428C27.7651 18.6942 27.7293 18.652 27.6855 18.6192ZM22.4983 22.6376C22.4486 22.6797 22.4111 22.7343 22.3897 22.7958C22.3683 22.8573 22.3637 22.9233 22.3765 22.9872L22.6371 24.2904L18.7882 23.6489C18.6826 23.6311 18.5519 23.661 18.4701 23.7304C18.3885 23.7994 18.3186 23.9011 18.3186 24.0081V27.2829C18.3186 27.4849 18.1552 27.6492 17.9545 27.6492C17.7538 27.6492 17.5904 27.4849 17.5904 27.2829V24.008C17.5904 23.901 17.5661 23.7993 17.4845 23.7303C17.4181 23.6741 17.346 23.6439 17.2605 23.6439C17.2406 23.6439 17.2261 23.6456 17.2062 23.6488L13.3601 24.2903L13.6221 22.9871C13.635 22.9233 13.6306 22.8573 13.6093 22.7958C13.588 22.7343 13.5506 22.6797 13.5011 22.6375L9.1167 18.9275L10.2078 18.1093C10.273 18.0604 10.32 17.9909 10.341 17.9121C10.3621 17.8333 10.3561 17.7497 10.324 17.6748L9.53338 15.8297L11.3458 16.3474C11.4325 16.3726 11.5254 16.3645 11.6065 16.3248C11.6875 16.2851 11.7508 16.2166 11.784 16.1326L12.3071 14.8246L15.1937 17.7114C15.2494 17.7672 15.3217 17.8033 15.3997 17.8145C15.4777 17.8256 15.5573 17.8112 15.6264 17.7732C15.6954 17.7353 15.7504 17.676 15.7829 17.6042C15.8153 17.5324 15.8237 17.452 15.8065 17.375L14.5043 11.5141L16.4001 12.3267C16.4456 12.3464 16.4946 12.3565 16.5442 12.3564C16.5938 12.3563 16.6429 12.346 16.6883 12.3261C16.7337 12.3064 16.7747 12.2777 16.8086 12.2417C16.8426 12.2056 16.8689 12.163 16.8858 12.1165L18 9.05228L19.1142 12.1165C19.1312 12.163 19.1574 12.2057 19.1914 12.2417C19.2254 12.2778 19.2664 12.3065 19.3118 12.3262C19.3573 12.3459 19.4063 12.3561 19.4559 12.3561C19.5054 12.3562 19.5545 12.3462 19.6 12.3266L21.4958 11.5141L20.1934 17.375C20.1763 17.4519 20.1846 17.5323 20.2171 17.6041C20.2496 17.6759 20.3045 17.7352 20.3736 17.7732C20.4427 17.8111 20.5222 17.8256 20.6002 17.8144C20.6783 17.8033 20.7506 17.7671 20.8063 17.7113L23.6929 14.8246L24.2159 16.1326C24.2492 16.2164 24.3125 16.2849 24.3936 16.3246C24.4746 16.3643 24.5675 16.3724 24.6542 16.3473L26.4666 15.8296L25.6759 17.6747C25.6438 17.7497 25.6378 17.8332 25.6588 17.912C25.6799 17.9908 25.7268 18.0603 25.792 18.1092L26.8829 18.9274L22.4983 22.6376Z" fill="black" fill-opacity="0.7" stroke="black" stroke-opacity="0.7" stroke-width="0.373585"/>
</g>
</g>
<defs>
<clipPath id="clip0_1_669">
<rect width="22" height="22" fill="white" transform="translate(7 7)"/>
</clipPath>
<clipPath id="clip1_1_669">
<rect width="22" height="22" fill="white" transform="translate(7 7)"/>
</clipPath>
</defs>
</svg>
