<svg width="36" height="36" viewBox="0 0 36 36" fill="none" xmlns="http://www.w3.org/2000/svg">
<rect width="36" height="36" rx="18" fill="#F6F3E9"/>
<g clip-path="url(#clip0_1_663)">
<g clip-path="url(#clip1_1_663)">
<path d="M27.718 22.5808C27.718 22.0667 27.5178 21.5831 27.1541 21.2197L20.7454 14.8107C21.7461 14.0037 22.4002 12.7827 22.4002 11.4C22.4002 8.97377 20.4264 7 18.0002 7C15.574 7 13.6002 8.97377 13.6002 11.4C13.6002 12.7827 14.2543 14.0033 15.255 14.8107L8.84603 21.2197C8.4823 21.5834 8.2821 22.0667 8.2821 22.5808C8.2821 23.0948 8.4823 23.5785 8.84603 23.9418C9.14191 24.2377 9.51849 24.4182 9.92476 24.4779C9.8903 24.589 9.85399 24.6998 9.83345 24.8167C9.70583 25.5402 9.86757 26.2699 10.2888 26.8715C10.7101 27.4732 11.3404 27.8747 12.0639 28.0024L17.4803 28.9575C17.639 28.9857 17.8004 29 17.9602 29C17.9716 29 17.9818 28.996 17.9932 28.996C18.0093 28.996 18.024 29 18.0401 29C18.2 29 18.3613 28.9857 18.5198 28.9579L23.9361 28.0027C24.6596 27.8751 25.2899 27.4736 25.7112 26.8719C26.1325 26.2702 26.2942 25.5406 26.1666 24.8171C26.146 24.6998 26.1097 24.5894 26.0752 24.4783C26.4819 24.4185 26.8584 24.2378 27.154 23.9422C27.5178 23.5785 27.718 23.0948 27.718 22.5808ZM14.7002 11.4C14.7002 9.57731 16.1775 8.1 18.0002 8.1C19.8229 8.1 21.3002 9.57731 21.3002 11.4C21.3002 13.2227 19.8229 14.7 18.0002 14.7C16.1775 14.7 14.7002 13.2227 14.7002 11.4ZM15.3338 26.7274C15.3833 27.0082 15.4816 27.2682 15.6066 27.5106L12.2553 26.9195C11.3577 26.7611 10.7586 25.9056 10.9169 25.0081C11.0581 24.2077 11.7544 23.6445 12.5398 23.6445C12.6348 23.6445 12.7312 23.6529 12.8284 23.6698L16.1526 24.2561C15.5062 24.8702 15.1677 25.7851 15.3338 26.7274ZM23.7448 26.9195L18.3284 27.8747C18.2333 27.8914 18.1368 27.8999 18.0402 27.9C17.2545 27.9 16.5581 27.3368 16.4173 26.5364C16.259 25.6388 16.8585 24.7833 17.7557 24.625L23.1721 23.6698C23.2673 23.6529 23.3639 23.6444 23.4606 23.6445C24.2464 23.6445 24.9423 24.2077 25.0835 25.0081C25.2415 25.9053 24.6424 26.7615 23.7448 26.9195ZM26.3764 23.1641C26.2998 23.2408 26.2089 23.3017 26.1088 23.3431C26.0087 23.3846 25.9014 23.4059 25.793 23.4057C25.5818 23.4057 25.3706 23.3251 25.2096 23.1641L20.7473 18.711C20.5325 18.4961 20.1841 18.4961 19.9696 18.711C19.7551 18.9258 19.7548 19.2742 19.9696 19.4887L23.0661 22.5789C23.0379 22.583 23.0089 22.5815 22.981 22.5863L18.0002 23.4648L13.0194 22.5867C12.9912 22.5815 12.9626 22.5833 12.9343 22.5793L16.0308 19.489C16.2457 19.2742 16.2457 18.9258 16.0308 18.7113C15.8159 18.4968 15.4676 18.4965 15.2531 18.7113L10.7908 23.1645C10.7143 23.2412 10.6234 23.302 10.5232 23.3435C10.4231 23.385 10.3158 23.4062 10.2074 23.4061C9.99626 23.4061 9.78507 23.3255 9.62406 23.1645C9.30175 22.8422 9.30175 22.3201 9.62406 21.9978L16.2105 15.4113C16.7586 15.6567 17.3618 15.8 18.0002 15.8C18.6386 15.8 19.2417 15.6567 19.7899 15.411L26.3764 21.9974C26.6987 22.3197 26.6987 22.8418 26.3764 23.1641Z" fill="black" fill-opacity="0.7" stroke="black" stroke-opacity="0.7" stroke-width="0.000214844"/>
</g>
</g>
<defs>
<clipPath id="clip0_1_663">
<rect width="22" height="22" fill="white" transform="translate(7 7)"/>
</clipPath>
<clipPath id="clip1_1_663">
<rect width="22" height="22" fill="white" transform="translate(7 7)"/>
</clipPath>
</defs>
</svg>
