<svg width="12" height="12" viewBox="0 0 12 12" fill="none" xmlns="http://www.w3.org/2000/svg">
<g clip-path="url(#clip0_1_590)">
<path d="M6.00002 8.8635L8.56502 10.441C8.70102 10.5235 8.87352 10.516 9.00202 10.422C9.13052 10.328 9.18952 10.166 9.15202 10.011L8.45452 7.068L10.737 5.099C10.856 4.9945 10.9015 4.8295 10.853 4.679C10.804 4.528 10.6705 4.421 10.5125 4.4065L7.51702 4.1625L6.36302 1.369C6.30252 1.2215 6.15952 1.125 6.00002 1.125C5.84102 1.125 5.69752 1.2215 5.63702 1.369L4.48302 4.1625L1.48752 4.4065C1.32852 4.42 1.19352 4.528 1.14452 4.6795C1.09552 4.831 1.14252 4.9975 1.26302 5.1015L3.54552 7.07L2.84802 10.011C2.81052 10.166 2.86952 10.328 2.99802 10.422C3.12652 10.516 3.29902 10.5235 3.43502 10.441L6.00002 8.8635Z" fill="#053D24"/>
<path d="M6.00002 8.8635L8.56502 10.441C8.70102 10.5235 8.87352 10.516 9.00202 10.422C9.13052 10.328 9.18952 10.166 9.15202 10.011L8.45452 7.068L10.737 5.099C10.856 4.9945 10.9015 4.8295 10.853 4.679C10.804 4.528 10.6705 4.421 10.5125 4.4065L7.51702 4.1625L6.36302 1.369C6.30252 1.2215 6.15952 1.125 6.00002 1.125C5.84102 1.125 5.69752 1.2215 5.63702 1.369L4.48302 4.1625L1.48752 4.4065C1.32852 4.42 1.19352 4.528 1.14452 4.6795C1.09552 4.831 1.14252 4.9975 1.26302 5.1015L3.54552 7.07L2.84802 10.011C2.81052 10.166 2.86952 10.328 2.99802 10.422C3.12652 10.516 3.29902 10.5235 3.43502 10.441L6.00002 8.8635Z" stroke="#053D24" stroke-width="0.75" stroke-linecap="round" stroke-linejoin="round"/>
</g>
<defs>
<clipPath id="clip0_1_590">
<rect width="12" height="12" fill="white"/>
</clipPath>
</defs>
</svg>
