<svg width="14" height="14" viewBox="0 0 14 14" fill="none" xmlns="http://www.w3.org/2000/svg">
<g clip-path="url(#clip0_1_741)">
<path d="M2.407 12.6001C1.913 12.6001 1.547 12.1121 1.734 11.6631C2.599 9.58912 4.632 8.40012 7 8.40012C9.369 8.40012 11.402 9.58912 12.267 11.6631C12.454 12.1121 12.088 12.6001 11.594 12.6001H2.407ZM7 1.40012C8.577 1.40012 9.858 2.65612 9.858 4.20012C9.858 5.74412 8.577 7.00012 7 7.00012C5.424 7.00012 4.142 5.74412 4.142 4.20012C4.142 2.65612 5.424 1.40012 7 1.40012ZM9.686 7.47112C10.819 6.57712 11.48 5.13212 11.237 3.54912C10.956 1.71312 9.396 0.244121 7.515 0.0291209C4.916 -0.266879 2.713 1.71412 2.713 4.20012C2.713 5.52312 3.338 6.70212 4.315 7.47112C2.175 8.25912 0.551003 9.99412 0.0310025 12.3451C-0.157997 13.2001 0.545002 14.0001 1.438 14.0001H12.562C13.456 14.0001 14.158 13.2001 13.969 12.3451C13.45 9.99412 11.825 8.25912 9.686 7.47112Z" fill="#595652"/>
</g>
<defs>
<clipPath id="clip0_1_741">
<rect width="14" height="14" fill="white"/>
</clipPath>
</defs>
</svg>
